<svg data-v-fde0c5aa="" xmlns="http://www.w3.org/2000/svg" viewBox="0 0 300 300" class="font"><!----><defs data-v-fde0c5aa=""><linearGradient data-v-fde0c5aa="" gradientTransform="rotate(25)" id="56b6b25f-ce43-43ab-b456-d01f29aa6a51" x1="0%" y1="0%" x2="100%" y2="0%"><stop data-v-fde0c5aa="" offset="0%" stop-color="#693F24" stop-opacity="1"></stop><stop data-v-fde0c5aa="" offset="100%" stop-color="#9C9289" stop-opacity="1"></stop></linearGradient></defs><rect data-v-fde0c5aa="" fill="url(#56b6b25f-ce43-43ab-b456-d01f29aa6a51)" x="0" y="0" width="300px" height="300px" class="logo-background-square"></rect><defs data-v-fde0c5aa=""><!----></defs><g data-v-fde0c5aa="" id="34ef3b89-156c-4fcf-9588-018beae58190" fill="#ffffff" transform="matrix(2.99156917679,0,0,2.99156917679,39.28202336904057,120.02447761886954)"><path d="M1.26 3.84C0.85 3.84 0.64 3.82 0.59 3.82C0.42 3.82 0.34 3.92 0.34 4.07C0.34 4.37 0.45 4.42 0.59 4.42C1.06 4.47 1.32 4.48 1.32 4.87L1.32 12.53C1.32 12.77 1.18 12.78 1.02 12.81C0.42 12.88 0.24 12.87 0.24 13.13C0.24 13.45 0.36 13.47 0.50 13.47L0.53 13.47C1.16 13.47 1.64 13.44 2.13 13.44C2.77 13.44 3.40 13.52 4.05 13.52C5.05 13.52 5.57 13.27 5.73 13.20C6.55 12.84 7.50 11.90 7.50 10.56C7.50 9.31 6.64 8.33 5.56 8.12C5.53 8.11 5.52 8.09 5.52 8.08C5.52 8.06 5.53 8.05 5.54 8.04C6.29 7.57 6.87 6.76 6.87 5.88C6.87 5.12 6.43 4.56 6.02 4.27C5.29 3.77 4.27 3.71 3.70 3.71C2.86 3.71 2.11 3.84 1.26 3.84ZM5.63 6.17C5.63 6.45 5.56 6.72 5.43 6.97C4.98 7.83 4.03 7.87 3.47 7.87L3.29 7.87L2.66 7.87C2.53 7.87 2.52 7.80 2.52 7.69L2.52 4.69L2.52 4.66C2.52 4.61 2.52 4.54 2.59 4.48C2.73 4.37 3.29 4.33 3.57 4.33C5.21 4.33 5.63 5.50 5.63 6.17ZM3.60 12.87C3.37 12.87 3.15 12.84 2.94 12.81C2.53 12.74 2.52 12.53 2.52 12.29L2.52 8.68C2.52 8.57 2.53 8.47 2.72 8.47L3.43 8.47C3.82 8.47 4.23 8.47 4.61 8.55C5.82 8.82 6.26 9.80 6.26 10.63C6.26 12.10 4.98 12.87 3.60 12.87ZM9.35 4.79C9.35 5.17 9.65 5.45 10.01 5.45C10.37 5.45 10.70 5.15 10.70 4.77C10.70 4.42 10.39 4.13 10.02 4.13C9.66 4.13 9.35 4.42 9.35 4.79ZM9.21 11.75L9.21 12.40C9.21 12.66 9.18 12.85 8.83 12.91C8.20 12.99 8.15 12.96 8.15 13.29C8.15 13.43 8.22 13.52 8.36 13.52C8.40 13.52 8.95 13.44 9.65 13.44C10.33 13.44 10.89 13.52 10.93 13.52C11.09 13.52 11.10 13.33 11.10 13.22C11.10 12.98 10.93 12.99 10.47 12.92C10.16 12.88 10.15 12.84 10.15 11.13L10.15 10.67C10.15 8.96 10.23 7.60 10.23 7.49C10.23 7.32 10.12 7.27 10.04 7.27L10.02 7.27C9.95 7.27 9.94 7.29 8.48 7.99C8.33 8.06 8.11 8.12 8.11 8.29C8.11 8.40 8.20 8.44 8.27 8.47C9.17 8.83 9.23 8.82 9.23 9.04C9.23 9.31 9.21 10.12 9.21 11.75ZM13.92 7.85C14.81 7.85 15.39 8.85 15.39 9.83C15.39 10.70 14.90 11.38 14.14 11.38C13.27 11.38 12.70 10.44 12.70 9.39C12.70 8.47 13.22 7.85 13.92 7.85ZM12.46 14.67C12.46 14.43 12.56 14.18 12.73 14.01C12.82 13.92 12.87 13.86 12.96 13.86L13.01 13.86C14.46 14.01 15.33 13.89 15.96 14.21C16.11 14.28 16.52 14.53 16.52 15.04C16.52 15.44 16.18 16.06 14.74 16.06C13.45 16.06 12.46 15.51 12.46 14.67ZM11.61 9.56C11.61 9.93 11.69 10.28 11.87 10.58C12.26 11.30 12.73 11.34 12.73 11.48C12.73 11.49 12.73 11.51 12.71 11.52C12.70 11.54 11.91 12.12 11.91 12.84C11.91 13.47 12.43 13.59 12.43 13.68C12.43 13.71 12.42 13.72 12.40 13.73C12.39 13.75 11.68 14.10 11.68 14.95C11.68 15.60 12.12 16.72 14.42 16.72C16.73 16.72 17.33 15.57 17.33 14.80C17.33 14.18 16.94 13.50 16.06 13.24C14.97 12.92 12.63 13.30 12.63 12.46C12.63 12.15 13.01 11.75 13.26 11.75C13.44 11.75 13.61 11.87 14.07 11.87C15.39 11.87 16.39 10.81 16.39 9.52C16.39 8.99 16.24 8.72 16.24 8.64C16.24 8.60 16.27 8.55 16.30 8.53C16.42 8.43 17.30 8.23 17.30 7.69C17.30 7.41 17.04 7.11 16.77 7.11C16.55 7.11 16.44 7.32 16.37 7.43C16.18 7.70 15.90 7.88 15.64 7.88C15.33 7.88 14.88 7.38 13.87 7.38C12.57 7.38 11.61 8.39 11.61 9.56ZM20.08 7.85C20.97 7.85 21.55 8.85 21.55 9.83C21.55 10.70 21.06 11.38 20.30 11.38C19.43 11.38 18.86 10.44 18.86 9.39C18.86 8.47 19.38 7.85 20.08 7.85ZM18.62 14.67C18.62 14.43 18.72 14.18 18.89 14.01C18.98 13.92 19.03 13.86 19.12 13.86L19.17 13.86C20.62 14.01 21.49 13.89 22.12 14.21C22.27 14.28 22.68 14.53 22.68 15.04C22.68 15.44 22.34 16.06 20.90 16.06C19.61 16.06 18.62 15.51 18.62 14.67ZM17.77 9.56C17.77 9.93 17.85 10.28 18.03 10.58C18.42 11.30 18.89 11.34 18.89 11.48C18.89 11.49 18.89 11.51 18.87 11.52C18.86 11.54 18.07 12.12 18.07 12.84C18.07 13.47 18.59 13.59 18.59 13.68C18.59 13.71 18.58 13.72 18.56 13.73C18.55 13.75 17.84 14.10 17.84 14.95C17.84 15.60 18.28 16.72 20.58 16.72C22.89 16.72 23.49 15.57 23.49 14.80C23.49 14.18 23.10 13.50 22.22 13.24C21.13 12.92 18.79 13.30 18.79 12.46C18.79 12.15 19.17 11.75 19.42 11.75C19.60 11.75 19.77 11.87 20.23 11.87C21.55 11.87 22.55 10.81 22.55 9.52C22.55 8.99 22.40 8.72 22.40 8.64C22.40 8.60 22.43 8.55 22.46 8.53C22.58 8.43 23.46 8.23 23.46 7.69C23.46 7.41 23.20 7.11 22.93 7.11C22.71 7.11 22.60 7.32 22.53 7.43C22.34 7.70 22.06 7.88 21.80 7.88C21.49 7.88 21.04 7.38 20.03 7.38C18.73 7.38 17.77 8.39 17.77 9.56ZM24.91 16.56C25.31 16.56 25.61 16.21 25.94 15.69C26.96 14.14 27.82 12.18 28.45 10.65C29.43 8.22 29.26 8.22 29.55 8.18C30.00 8.12 30.10 8.13 30.10 7.91C30.10 7.76 30.10 7.63 29.93 7.63C29.83 7.63 29.51 7.67 28.87 7.67L28.85 7.67C28.20 7.67 27.86 7.63 27.76 7.63C27.59 7.63 27.50 7.73 27.50 7.88C27.50 8.09 27.64 8.13 27.76 8.15C28.22 8.19 28.43 8.13 28.43 8.47C28.43 8.93 28.01 10.02 27.29 11.76C27.26 11.79 27.23 11.90 27.15 11.90C27.08 11.90 27.05 11.84 27.05 11.82C26.10 10.02 25.52 8.50 25.52 8.37C25.52 8.22 25.63 8.19 25.73 8.18C26.15 8.13 26.25 8.16 26.25 7.85C26.25 7.74 26.22 7.63 26.07 7.63C25.96 7.63 25.62 7.67 24.96 7.67C24.30 7.67 23.97 7.63 23.87 7.63C23.72 7.63 23.67 7.73 23.67 7.87C23.67 8.33 23.98 8.04 24.21 8.33C24.23 8.37 24.72 9.28 24.98 9.76C26.12 12.05 26.53 12.92 26.53 13.23C26.53 13.62 25.96 14.50 25.59 14.84C25.07 15.33 24.36 15.50 24.36 16.06C24.36 16.34 24.60 16.56 24.91 16.56ZM36.60 13.69C37.65 13.69 38.46 13.12 38.91 12.50C38.95 12.45 38.99 12.36 38.99 12.28C38.99 12.14 38.88 12.04 38.75 12.04C38.43 12.04 38.14 12.80 37.04 12.80C35.76 12.80 34.83 11.63 34.83 10.33C34.83 9.16 35.57 8.18 36.43 8.18C37.24 8.18 37.48 9.02 38.12 9.02C38.42 9.02 38.68 8.81 38.68 8.48C38.68 7.95 37.91 7.45 36.90 7.45C35.11 7.45 33.91 8.78 33.91 10.68C33.91 12.40 34.99 13.69 36.60 13.69ZM39.41 8.61C39.41 8.93 39.70 9.11 39.97 9.11C40.15 9.11 40.24 9.02 40.28 8.96C40.31 8.90 40.68 8.02 41.48 8.02C41.85 8.02 42.13 8.22 42.29 8.40C42.57 8.72 42.63 9.07 42.63 9.52L42.63 10.02C42.63 10.12 42.62 10.19 42.52 10.22C42.49 10.23 40.81 10.29 40.05 10.89C39.72 11.16 39.47 11.61 39.47 12.14L39.47 12.15C39.47 13.01 40.10 13.72 41.06 13.72C41.58 13.72 42.04 13.54 42.36 13.33C42.71 13.09 42.67 13.02 42.74 13.02C42.76 13.02 42.76 13.03 42.77 13.03C42.80 13.05 43.13 13.61 43.76 13.61C44.49 13.61 44.84 12.82 44.84 12.50C44.84 12.38 44.77 12.32 44.72 12.32C44.51 12.32 44.53 12.78 44.10 12.78C43.96 12.78 43.62 12.71 43.62 12.17L43.62 9.41C43.62 9.24 43.61 9.07 43.60 8.90C43.46 7.53 42.10 7.36 41.57 7.36C40.40 7.36 39.41 8.11 39.41 8.61ZM41.40 12.95C41.22 12.95 40.96 12.92 40.80 12.77C40.57 12.57 40.50 12.22 40.50 12.00C40.50 11.65 40.66 11.40 40.84 11.24C41.30 10.81 42.25 10.74 42.50 10.74C42.63 10.74 42.64 10.81 42.64 11.14L42.64 11.72L42.64 12.05C42.64 12.18 42.63 12.28 42.56 12.38C42.49 12.47 42.08 12.95 41.40 12.95ZM48.43 13.06C48.10 13.06 47.78 12.98 47.50 12.84C47.14 12.67 47.14 12.53 47.14 12.40L47.14 9.39C47.14 8.99 47.24 8.75 47.54 8.53C47.91 8.25 48.29 8.23 48.47 8.23C49.59 8.23 50.64 9.35 50.64 10.71C50.64 12.11 49.56 13.06 48.43 13.06ZM48.93 7.41C48.82 7.41 48.72 7.41 48.61 7.42C47.52 7.57 47.07 8.33 47.00 8.33C46.97 8.33 46.96 8.29 46.96 8.25L46.96 7.42C46.96 7.34 46.93 7.27 46.84 7.27C46.77 7.27 46.75 7.31 46.61 7.38C45.14 8.25 45.11 8.23 45.11 8.32L45.11 8.33C45.11 8.43 45.14 8.41 46.05 8.82C46.21 8.89 46.23 9.03 46.23 9.10L46.23 9.13L46.23 15.60C46.23 15.83 46.14 15.95 45.92 15.99C45.28 16.13 45.11 16.10 45.11 16.35C45.11 16.59 45.25 16.63 45.33 16.63C45.40 16.63 46.17 16.52 47.19 16.52C47.98 16.52 48.38 16.58 48.51 16.58C48.64 16.58 48.68 16.48 48.68 16.37C48.68 15.93 48.40 16.02 47.56 15.93C47.26 15.90 47.25 15.71 47.25 15.57L47.25 15.53L47.25 13.61C47.25 13.51 47.26 13.45 47.35 13.45C47.38 13.45 47.77 13.54 48.24 13.54C50.19 13.54 51.58 12.29 51.58 10.43C51.58 8.81 50.48 7.41 48.93 7.41ZM53.30 4.79C53.30 5.17 53.59 5.45 53.96 5.45C54.32 5.45 54.64 5.15 54.64 4.77C54.64 4.42 54.33 4.13 53.97 4.13C53.61 4.13 53.30 4.42 53.30 4.79ZM53.16 11.75L53.16 12.40C53.16 12.66 53.13 12.85 52.78 12.91C52.15 12.99 52.09 12.96 52.09 13.29C52.09 13.43 52.16 13.52 52.30 13.52C52.35 13.52 52.89 13.44 53.59 13.44C54.28 13.44 54.84 13.52 54.88 13.52C55.03 13.52 55.05 13.33 55.05 13.22C55.05 12.98 54.88 12.99 54.42 12.92C54.11 12.88 54.10 12.84 54.10 11.13L54.10 10.67C54.10 8.96 54.18 7.60 54.18 7.49C54.18 7.32 54.07 7.27 53.98 7.27L53.97 7.27C53.90 7.27 53.89 7.29 52.43 7.99C52.28 8.06 52.05 8.12 52.05 8.29C52.05 8.40 52.15 8.44 52.22 8.47C53.12 8.83 53.17 8.82 53.17 9.04C53.17 9.31 53.16 10.12 53.16 11.75ZM55.80 8.33L56.25 8.33C56.34 8.33 56.35 8.39 56.35 8.46C56.35 8.76 56.29 10.93 56.29 11.55C56.29 11.70 56.29 11.84 56.31 12.00C56.41 13.31 57.16 13.71 57.72 13.71C58.49 13.71 59.18 13.01 59.67 12.45C59.70 12.40 59.77 12.32 59.77 12.21C59.77 12.08 59.67 11.96 59.51 11.96C59.21 11.96 58.66 12.80 57.99 12.80C57.40 12.80 57.27 12.25 57.27 11.76C57.27 11.42 57.27 11.10 57.29 8.48C57.29 8.39 57.33 8.36 57.43 8.36L59.07 8.36C59.19 8.36 59.26 8.34 59.32 8.29C59.39 8.20 59.44 7.97 59.44 7.88C59.44 7.62 59.21 7.62 59.08 7.62C59.04 7.62 59.01 7.60 58.97 7.60L57.71 7.60C57.54 7.60 57.43 7.56 57.43 7.32C57.43 7.13 57.44 6.54 57.44 6.34C57.44 6.16 57.34 6.12 57.26 6.12C57.11 6.12 57.02 6.30 56.98 6.37C56.22 7.66 55.52 7.91 55.52 8.15C55.52 8.32 55.68 8.33 55.80 8.33ZM60.31 8.61C60.31 8.93 60.61 9.11 60.87 9.11C61.05 9.11 61.14 9.02 61.18 8.96C61.21 8.90 61.59 8.02 62.38 8.02C62.75 8.02 63.03 8.22 63.20 8.40C63.48 8.72 63.53 9.07 63.53 9.52L63.53 10.02C63.53 10.12 63.52 10.19 63.42 10.22C63.39 10.23 61.71 10.29 60.96 10.89C60.62 11.16 60.37 11.61 60.37 12.14L60.37 12.15C60.37 13.01 61.00 13.72 61.96 13.72C62.48 13.72 62.94 13.54 63.27 13.33C63.62 13.09 63.57 13.02 63.64 13.02C63.66 13.02 63.66 13.03 63.67 13.03C63.70 13.05 64.04 13.61 64.67 13.61C65.39 13.61 65.74 12.82 65.74 12.50C65.74 12.38 65.67 12.32 65.62 12.32C65.41 12.32 65.44 12.78 65.00 12.78C64.86 12.78 64.53 12.71 64.53 12.17L64.53 9.41C64.53 9.24 64.51 9.07 64.50 8.90C64.36 7.53 63 7.36 62.47 7.36C61.31 7.36 60.31 8.11 60.31 8.61ZM62.30 12.95C62.12 12.95 61.87 12.92 61.70 12.77C61.47 12.57 61.40 12.22 61.40 12.00C61.40 11.65 61.56 11.40 61.74 11.24C62.20 10.81 63.15 10.74 63.41 10.74C63.53 10.74 63.55 10.81 63.55 11.14L63.55 11.72L63.55 12.05C63.55 12.18 63.53 12.28 63.46 12.38C63.39 12.47 62.99 12.95 62.30 12.95ZM69.02 13.24C69.02 13.06 68.95 12.99 68.78 12.96C68.22 12.87 68.07 12.89 68.07 12.45L68.07 3.58C68.07 3.46 68.04 3.32 67.87 3.32C67.80 3.32 67.75 3.35 67.70 3.37C66.01 4.26 65.98 4.23 65.98 4.34L65.98 4.35C65.98 4.51 66.16 4.56 66.72 4.90C66.96 5.04 67.05 5.04 67.05 5.25L67.05 12.38C67.05 12.66 67.02 12.87 66.65 12.91C66.18 12.96 66.08 12.95 66.08 13.22L66.08 13.26C66.08 13.36 66.09 13.51 66.28 13.51C66.32 13.51 66.86 13.44 67.54 13.44C68.24 13.44 68.81 13.52 68.85 13.52C68.99 13.52 69.02 13.41 69.02 13.24ZM69.61 9.11C69.61 9.80 70.03 10.50 71.16 10.82C71.61 10.95 72.84 11.09 72.84 12.01C72.84 12.57 72.34 12.95 71.71 12.95C70.90 12.95 70.25 12.42 70.11 12.12C69.92 11.73 70.14 11.26 69.79 11.26C69.58 11.26 69.54 11.33 69.54 11.69C69.54 11.89 69.55 12.15 69.55 12.53C69.55 12.74 69.58 12.85 69.72 13.01C70.13 13.48 71.01 13.71 71.65 13.71C73.04 13.71 73.78 12.71 73.78 11.82C73.78 11.59 73.72 11.13 73.36 10.71C72.84 10.11 72.18 10.07 71.47 9.87C70.43 9.58 70.36 9.06 70.36 8.86C70.36 8.41 70.77 8.12 71.25 8.12C71.71 8.12 72.21 8.41 72.39 8.67C72.59 8.95 72.55 9.35 72.84 9.35C72.95 9.35 73.16 9.31 73.16 9.13C73.16 9.07 72.98 8.15 72.90 7.66C72.88 7.59 72.84 7.39 72.67 7.39C72.51 7.39 72.45 7.53 72.32 7.53C72.25 7.53 72.04 7.46 71.62 7.46C70.36 7.46 69.61 8.27 69.61 9.11Z"></path></g><!----><!----></svg>